PathFileType	4	(X/Y/Z)	C:\Users\xlb\Desktop\20210112\20210112\bx_n_10_901.trc
DataRate	CameraRate	NumFrames	NumMarkers	Units	OrigDataRate	OrigDataStartFrame	OrigNumFrames
50.00	50.00	       4	43	mm	50.00	1	       518
Frame#	Time	Top.Head			R.Acromium			L.Acromium			Sternum			R.ASIS			L.ASIS			V.Sacral			R.Thigh.Upper			R.Thigh.Front			R.Thigh.Rear			R.Knee.Lat			R.Knee.Med			R.Shank.Upper			R.Shank.Front			R.Shank.Rear			R.Ankle.Lat			R.Midfoot.Lat			R.Toe.Lat			R.Toe.Tip			R.Toe.Med			R.Ankle.Med			R.Midfoot.Sup			R.Heel			L.Thigh.Upper			L.Thigh.Front			L.Thigh.Rear			L.Knee.Lat			L.Knee.Med			L.Shank.Upper			L.Shank.Front			L.Shank.Rear			L.Ankle.Lat			L.Midfoot.Lat			L.Toe.Lat			L.Toe.Tip			L.Toe.Med			L.Ankle.Med			L.Midfoot.Sup			L.Heel			origin1 front left			origin2 front right			origin 3 back right			origin 4 back leftt			
		X1	Y1	Z1	X2	Y2	Z2	X3	Y3	Z3	X4	Y4	Z4	X5	Y5	Z5	X6	Y6	Z6	X7	Y7	Z7	X8	Y8	Z8	X9	Y9	Z9	X10	Y10	Z10	X11	Y11	Z11	X12	Y12	Z12	X13	Y13	Z13	X14	Y14	Z14	X15	Y15	Z15	X16	Y16	Z16	X17	Y17	Z17	X18	Y18	Z18	X19	Y19	Z19	X20	Y20	Z20	X21	Y21	Z21	X22	Y22	Z22	X23	Y23	Z23	X24	Y24	Z24	X25	Y25	Z25	X26	Y26	Z26	X27	Y27	Z27	X28	Y28	Z28	X29	Y29	Z29	X30	Y30	Z30	X31	Y31	Z31	X32	Y32	Z32	X33	Y33	Z33	X34	Y34	Z34	X35	Y35	Z35	X36	Y36	Z36	X37	Y37	Z37	X38	Y38	Z38	X39	Y39	Z39	X40	Y40	Z40	X41	Y41	Z41	X42	Y42	Z42	X43	Y43	Z43	

1	0.000	-650.50385	135.73518	1844.38916	-682.23279	-63.89064	1537.35486	-710.78961	297.05112	1520.79932	-591.45264	113.87398	1351.23865	-570.51208	-1.22764	1054.10925	-584.04987	248.12918	1065.53210	-777.16321	96.77480	1049.18311	-635.75189	-68.76635	871.35461	-562.61761	-0.03766	802.70795	-660.85040	-55.75199	757.50269	-690.03351	-29.61673	616.49066	-676.16101	79.36241	574.21680	-699.82941	-26.42778	568.64789	-648.86017	22.72688	518.65002	-745.88654	-38.32701	490.19968	-754.64246	-13.30501	207.78333	-648.59723	-66.05529	163.29210	-607.28876	-74.53147	158.38834	-546.26929	-31.25552	163.63135	-594.82422	25.81768	166.21449	-711.63702	75.72609	215.80930	-668.32385	56.22815	156.35127	-788.65082	46.32367	174.46089	-666.35779	289.95908	872.59906	-564.93292	217.68040	813.78668	-675.90613	273.54593	742.74506	-707.26385	253.66971	642.38208	-674.22833	145.91576	575.91296	-711.76202	248.90376	576.28058	-660.55609	207.05547	532.41846	-754.21649	259.43140	503.50833	-765.39386	227.04831	205.45813	-658.74200	298.01193	158.27779	-622.81128	306.79514	158.97676	-554.07361	256.74615	164.06377	-590.17676	219.02016	173.53946	-710.11591	152.62096	216.21104	-673.61688	171.44363	157.20950	-794.22839	177.90120	183.42009	-527.91608	304.27734	146.74899	-517.18890	-72.39316	143.16502	-875.97473	-78.84007	141.37231	-882.44348	296.09494	144.68474	
2	0.020	-650.23999	135.70241	1844.42517	-682.11566	-63.90732	1537.31628	-710.67407	297.04065	1520.86121	-591.47894	113.87992	1351.23328	-570.72919	-1.16981	1054.12390	-584.14825	248.13950	1065.50220	-777.38177	96.89124	1049.24939	-635.92236	-68.77866	871.32050	-562.84180	-0.02075	802.76178	-660.94092	-55.85772	757.53619	-690.04834	-29.62218	616.54486	-676.27142	79.37867	574.24005	-699.87036	-26.45942	568.65533	-648.91309	22.74539	518.59735	-745.95789	-38.32531	490.20175	-754.68976	-13.29287	207.85579	-648.61823	-66.05368	163.29349	-607.26129	-74.58022	158.44180	-546.28741	-31.30577	163.71036	-594.82056	25.81651	166.15739	-711.58508	75.74200	215.76216	-668.32397	56.22105	156.41823	-788.63007	46.35098	174.41685	-666.53076	289.85294	872.56409	-565.02356	217.64693	813.76764	-676.05341	273.50250	742.72485	-707.40149	253.58226	642.28418	-674.38538	145.96684	575.81421	-710.45331	250.29785	577.61847	-660.61090	207.05391	532.46838	-754.32135	259.37784	503.54211	-765.42493	227.03244	205.44600	-658.72968	298.01291	158.29932	-622.79108	306.80820	158.95712	-554.00244	256.82040	164.09254	-590.13147	218.97231	173.55075	-710.03241	152.63629	216.18871	-673.54089	171.45943	157.24675	-794.24054	177.91444	183.43872	-527.93048	304.28427	146.70335	-517.17737	-72.33351	143.15154	-875.97467	-78.79960	141.39949	-882.45844	296.12479	144.69783	
3	0.040	-649.94501	135.66284	1844.45654	-681.98517	-63.92578	1537.28186	-710.54529	297.03003	1520.92651	-591.50098	113.88450	1351.22729	-570.95300	-1.12112	1054.14124	-584.25476	248.14372	1065.48242	-777.60474	97.00150	1049.31116	-636.10260	-68.78644	871.29462	-563.07318	-0.00214	802.81268	-661.04492	-55.95909	757.56622	-690.07111	-29.62926	616.59784	-676.37683	79.39334	574.26251	-699.92169	-26.48489	568.65900	-648.97363	22.76691	518.54968	-746.02863	-38.32111	490.19965	-754.73254	-13.28099	207.91948	-648.63629	-66.05134	163.29575	-607.23578	-74.62431	158.49074	-546.30334	-31.34883	163.78113	-594.81879	25.81309	166.10870	-711.53827	75.75484	215.71875	-668.32568	56.21556	156.48378	-788.61133	46.37582	174.37474	-666.70343	289.75464	872.52997	-565.11847	217.61824	813.75897	-676.20172	273.46097	742.71490	-707.54395	253.49811	642.19867	-674.54895	146.01027	575.73438	-709.44489	251.39124	578.65839	-660.66528	207.05083	532.51978	-754.43518	259.32861	503.56921	-765.45410	227.01868	205.43524	-658.71808	298.01215	158.31714	-622.77411	306.81934	158.93886	-553.93970	256.88733	164.11877	-590.09235	218.92972	173.56013	-709.96094	152.65134	216.17375	-673.47156	171.47266	157.28259	-794.25061	177.92670	183.45267	-527.94366	304.29330	146.66257	-517.16656	-72.28339	143.14287	-875.97437	-78.76310	141.42439	-882.47327	296.15201	144.70886	
4	0.060	-649.59015	135.61099	1844.47913	-681.82971	-63.94832	1537.25476	-710.39075	297.01843	1520.99817	-591.51532	113.88654	1351.21924	-571.18994	-1.08835	1054.16272	-584.37787	248.13747	1065.48145	-777.83673	97.09972	1049.36597	-636.30151	-68.78516	871.28290	-563.31744	0.01842	802.85864	-661.17413	-56.05220	757.58954	-690.10992	-29.63954	616.64880	-676.47504	79.40551	574.28363	-699.99176	-26.50000	568.65741	-649.04791	22.79368	518.51166	-746.09930	-38.31280	490.19073	-754.76770	-13.26989	207.96756	-648.64911	-66.04777	163.29958	-607.21368	-74.66016	158.53152	-546.31537	-31.37949	163.83730	-594.82037	25.80561	166.07471	-711.50110	75.76202	215.68172	-668.32983	56.21280	156.54681	-788.59625	46.39585	174.33650	-666.87677	289.67093	872.49762	-565.22229	217.59792	813.77020	-676.35260	273.42166	742.72266	-707.69446	253.41951	642.13446	-674.72424	146.04008	575.68842	-708.94830	251.97322	579.19232	-660.71991	207.04546	532.57397	-754.56494	259.28656	503.58444	-765.47974	227.00885	205.42677	-658.70801	298.00851	158.32857	-622.76294	306.82718	158.92291	-553.89215	256.94101	164.14012	-590.06433	218.89653	173.56633	-709.91119	152.66582	216.17181	-673.41394	171.48175	157.31586	-794.25720	177.93713	183.45850	-527.95471	304.30582	146.63048	-517.15723	-72.25024	143.14252	-875.97375	-78.73365	141.44507	-882.48767	296.17435	144.71640	
